<svg width="37" height="47" viewBox="0 0 37 47" fill="none" xmlns="http://www.w3.org/2000/svg">
<path d="M8.5 8.5H8.525M28.5 38.5H28.525M36 6V41C36 42.3261 35.4732 43.5979 34.5355 44.5355C33.5979 45.4732 32.3261 46 31 46H6C4.67392 46 3.40215 45.4732 2.46447 44.5355C1.52678 43.5979 1 42.3261 1 41V6C1 4.67392 1.52678 3.40215 2.46447 2.46447C3.40215 1.52678 4.67392 1 6 1H31C32.3261 1 33.5979 1.52678 34.5355 2.46447C35.4732 3.40215 36 4.67392 36 6Z" stroke="#3C2F51" stroke-linecap="round" stroke-linejoin="round"/>
<path d="M13.5 16H23.5V26C23.5 27.3261 22.9732 28.5979 22.0355 29.5355C21.0979 30.4732 19.8261 31 18.5 31C17.1739 31 15.9021 30.4732 14.9645 29.5355C14.0268 28.5979 13.5 27.3261 13.5 26" stroke="#3C2F51" stroke-linecap="round" stroke-linejoin="round"/>
</svg>
