<svg width="10" height="10" viewBox="0 0 10 10" fill="none" xmlns="http://www.w3.org/2000/svg">
<path d="M1.5 9.5C1.22386 9.77614 0.776142 9.77614 0.5 9.5C0.223858 9.22386 0.223858 8.77614 0.5 8.5L3.29289 5.70711C3.68342 5.31658 3.68342 4.68342 3.29289 4.29289L0.5 1.5C0.223857 1.22386 0.223858 0.776143 0.5 0.5C0.776143 0.223858 1.22386 0.223858 1.5 0.5L4.29289 3.29289C4.68342 3.68342 5.31658 3.68342 5.70711 3.29289L8.5 0.5C8.77614 0.223857 9.22386 0.223858 9.5 0.5C9.77614 0.776143 9.77614 1.22386 9.5 1.5L6.70711 4.29289C6.31658 4.68342 6.31658 5.31658 6.70711 5.70711L9.5 8.5C9.77614 8.77614 9.77614 9.22386 9.5 9.5C9.22386 9.77614 8.77614 9.77614 8.5 9.5L5.70711 6.70711C5.31658 6.31658 4.68342 6.31658 4.29289 6.70711L1.5 9.5Z" fill="#3C2F51"/>
</svg>
